# ProBuilder 4.0.5
# https://unity3d.com/unity/features/worldbuilding/probuilder
# 7/11/2019 5:36:11 PM

mtllib ./Kongjyumoney.mtl
o Kongjyumoney

g Kongjyumoney (2)
v -0.2230228 -0.2928972 3.814697E-06
v -0.2901825 0 0
v -0.1577019 -0.2928972 0.1577034
v -0.205191 0 0.2051888
v -2.294779E-06 -0.2928972 0.2230263
v -3.874302E-07 0 0.2901878
v 0.1576973 -0.2928972 0.1577034
v 0.2051903 0 0.2051888
v 0.2230183 -0.2928972 3.814697E-06
v 0.2901817 0 0
v 0.1576973 -0.2928972 -0.1576958
v 0.2051903 0 -0.2051888
v -2.294779E-06 -0.2928972 -0.2230186
v -3.874302E-07 0 -0.2901878
v -0.1577019 -0.2928972 -0.1576958
v -0.205191 0 -0.2051888
v -0.2387604 0.2732944 -0.01263046
v -0.1725296 0.2732944 0.1472664
v -0.01263466 0.2732944 0.2134972
v 0.1472603 0.2732944 0.1472664
v 0.2134911 0.2732944 -0.01263046
v 0.1472603 0.2732944 -0.1725273
v -0.01263466 0.2732944 -0.2387619
v -0.1725296 0.273294 -0.1725273
v -3.874302E-07 -0.3460131 0
v -3.874302E-07 0.3321352 0

vt 0.748777 0.02366808
vt 0.748777 0.259362
vt 0.9870805 0.02366808
vt 0.9867278 0.259362
vt 0.01335537 0.02417734
vt 0.01362783 0.2598712
vt 0.2524826 0.02417734
vt 0.2524826 0.2598712
vt 0.4916024 0.02417734
vt 0.4913373 0.2598712
vt 0.509415 0.02433482
vt 0.5097676 0.2600286
vt 0.7477184 0.02433482
vt 0.7477184 0.2600286
vt 0.9858565 0.02433482
vt 0.9856692 0.2600286
vt 0.01340991 0.02580014
vt 0.01367503 0.261494
vt 0.2525297 0.02580014
vt 0.2525297 0.261494
vt 0.4916569 0.02580014
vt 0.4913844 0.261494
vt 0.5106388 0.02366808
vt 0.5108262 0.259362
vt 0.748777 0.4950557
vt 0.9870805 0.4950557
vt 0.01335537 0.495565
vt 0.2524826 0.495565
vt 0.4916024 0.495565
vt 0.509415 0.4957226
vt 0.7477184 0.4957226
vt 0.9858565 0.4957226
vt 0.01340991 0.4971879
vt 0.2525297 0.4971879
vt 0.4916569 0.4971879
vt 0.5106388 0.4950557
vt 0.5199023 0.7481697
vt 0.743673 0.7481697
vt 0.5854428 0.9063997
vt 0.4807613 0.746521
vt 0.2569907 0.746521
vt 0.4152209 0.9047511
vt 0.743673 0.9719437
vt 0.2569907 0.9702951
vt 0.9019031 0.9063997
vt 0.0987606 0.9047511
vt 0.9674436 0.7481697
vt 0.03322011 0.746521
vt 0.9019031 0.5899396
vt 0.0987606 0.5882909
vt 0.743673 0.5243957
vt 0.2569907 0.522747
vt 0.5854428 0.5899396
vt 0.4152209 0.5882909

vn -0.6944044 -0.7195849 -1.231352E-07
vn -0.9998024 -0.01987096 -0.0006195247
vn -0.4910222 -0.719583 0.4910168
vn -0.7078698 0.002329944 0.7063392
vn -2.572166E-06 -0.7195883 0.6944008
vn -0.0008841139 0.02424562 0.9997057
vn 0.4910221 -0.7195857 0.491013
vn 0.7067238 0.03322738 0.7067088
vn 0.6944018 -0.7195875 -1.961032E-07
vn 0.9997057 0.0242429 -0.0008845379
vn 0.4910181 -0.7195885 -0.491013
vn 0.7063562 0.002327018 -0.7078527
vn 2.711236E-06 -0.7195936 -0.6943955
vn -0.0006188105 -0.01987897 -0.9998022
vn -0.4910206 -0.7195874 -0.4910119
vn -0.7068161 -0.02914627 -0.7067966
vn -0.7104877 0.7037094 0.0005521813
vn -0.4950605 0.7133044 0.4960967
vn 0.000524561 0.7220599 0.6918303
vn 0.4866976 0.7254328 0.4866956
vn 0.6918322 0.7220581 0.0005204937
vn 0.4961054 0.7133068 -0.4950482
vn 0.0005514355 0.7037164 -0.7104808
vn -0.5053354 0.6994889 -0.505323
vn 1.117577E-06 -1 -2.23323E-06
vn 0.00792571 0.9999372 0.007924118

g Kongjyumoney (2)
usemtl KongjyuTexture
f 1/37/1 25/38/25 3/39/3
f 3/39/3 25/38/25 5/43/5
f 5/43/5 25/38/25 7/45/7
f 7/45/7 25/38/25 9/47/9
f 9/47/9 25/38/25 11/49/11
f 11/49/11 25/38/25 13/51/13
f 13/51/13 25/38/25 15/53/15
f 15/53/15 25/38/25 1/37/1
f 18/42/18 26/41/26 17/40/17
f 19/44/19 26/41/26 18/42/18
f 20/46/20 26/41/26 19/44/19
f 21/48/21 26/41/26 20/46/20
f 22/50/22 26/41/26 21/48/21
f 23/52/23 26/41/26 22/50/22
f 24/54/24 26/41/26 23/52/23
f 17/40/17 26/41/26 24/54/24
f 4/4/4 2/2/2 1/1/1
f 1/1/1 3/3/3 4/4/4
f 6/8/6 4/6/4 3/5/3
f 3/5/3 5/7/5 6/8/6
f 8/10/8 6/8/6 5/7/5
f 5/7/5 7/9/7 8/10/8
f 10/14/10 8/12/8 7/11/7
f 7/11/7 9/13/9 10/14/10
f 12/16/12 10/14/10 9/13/9
f 9/13/9 11/15/11 12/16/12
f 14/20/14 12/18/12 11/17/11
f 11/17/11 13/19/13 14/20/14
f 16/22/16 14/20/14 13/19/13
f 13/19/13 15/21/15 16/22/16
f 2/2/2 16/24/16 15/23/15
f 15/23/15 1/1/1 2/2/2
f 18/26/18 17/25/17 2/2/2
f 2/2/2 4/4/4 18/26/18
f 19/28/19 18/27/18 4/6/4
f 4/6/4 6/8/6 19/28/19
f 20/29/20 19/28/19 6/8/6
f 6/8/6 8/10/8 20/29/20
f 21/31/21 20/30/20 8/12/8
f 8/12/8 10/14/10 21/31/21
f 22/32/22 21/31/21 10/14/10
f 10/14/10 12/16/12 22/32/22
f 23/34/23 22/33/22 12/18/12
f 12/18/12 14/20/14 23/34/23
f 24/35/24 23/34/23 14/20/14
f 14/20/14 16/22/16 24/35/24
f 17/25/17 24/36/24 16/24/16
f 16/24/16 2/2/2 17/25/17

